<?xml version="1.0" encoding="UTF-8" standalone="no"?>
<!-- Created with Inkscape (http://www.inkscape.org/) -->

<svg
   xmlns:dc="http://purl.org/dc/elements/1.1/"
   xmlns:cc="http://creativecommons.org/ns#"
   xmlns:rdf="http://www.w3.org/1999/02/22-rdf-syntax-ns#"
   xmlns:svg="http://www.w3.org/2000/svg"
   xmlns="http://www.w3.org/2000/svg"
   xmlns:sodipodi="http://sodipodi.sourceforge.net/DTD/sodipodi-0.dtd"
   xmlns:inkscape="http://www.inkscape.org/namespaces/inkscape"
   version="1.1"
   id="svg4797"
   xml:space="preserve"
   width="800"
   height="800"
   viewBox="0 0 800 800"
   sodipodi:docname="baby-color-silhouette.svg"
   inkscape:version="0.92.4 (5da689c313, 2019-01-14)"><metadata
     id="metadata4803"><rdf:RDF><cc:Work
         rdf:about=""><dc:format>image/svg+xml</dc:format><dc:type
           rdf:resource="http://purl.org/dc/dcmitype/StillImage" /><dc:title></dc:title></cc:Work></rdf:RDF></metadata><defs
     id="defs4801"><clipPath
       clipPathUnits="userSpaceOnUse"
       id="clipPath4813"><path
         d="M 0,600 H 600 V 0 H 0 Z"
         id="path4811"
         inkscape:connector-curvature="0" /></clipPath></defs><sodipodi:namedview
     pagecolor="#ffffff"
     bordercolor="#666666"
     borderopacity="1"
     objecttolerance="10"
     gridtolerance="10"
     guidetolerance="10"
     inkscape:pageopacity="0"
     inkscape:pageshadow="2"
     inkscape:window-width="1920"
     inkscape:window-height="1018"
     id="namedview4799"
     showgrid="false"
     inkscape:zoom="1.0013867"
     inkscape:cx="400"
     inkscape:cy="400"
     inkscape:window-x="-8"
     inkscape:window-y="-8"
     inkscape:window-maximized="1"
     inkscape:current-layer="g4805" /><g
     id="g4805"
     inkscape:groupmode="layer"
     inkscape:label="baby-color-silhouette"
     transform="matrix(1.3333333,0,0,-1.3333333,0,800)"><g
       id="g4807"><g
         id="g4809"
         clip-path="url(#clipPath4813)"><path
           d="m 313.291,101.506 v 0.006 c 1.629,-1.073 3.503,-2.111 5.523,-1.977 1.999,0.399 2.807,1.645 3.081,3.216 l -9.018,-1.052 c 0.135,-0.069 0.273,-0.135 0.414,-0.193"
           style="fill:#e00785;fill-opacity:1;fill-rule:nonzero;stroke:none"
           id="path4815"
           inkscape:connector-curvature="0" /><path
           d="m 17.173,203.617 c -0.499,-2.801 -0.061,-5.893 -0.207,-8.802 0.088,-1 0.085,-2.036 0.055,-3.086 l 14.175,29.145 C 26.312,215.303 21.097,209.961 17.173,203.617"
           style="fill:#b431ed;fill-opacity:1;fill-rule:nonzero;stroke:none"
           id="path4817"
           inkscape:connector-curvature="0" /><path
           d="m 47.813,252.198 c -2.859,-3.679 -4.724,-8.413 -7.058,-12.263 -2.705,-6.006 -5.242,-12.147 -8.554,-17.907 -0.333,-0.385 -0.668,-0.77 -1.005,-1.154 L 17.021,191.729 c -0.086,-2.906 -0.389,-5.918 0.399,-8.571 l 84.203,22.135 z"
           style="fill:#c332e0;fill-opacity:1;fill-rule:nonzero;stroke:none"
           id="path4819"
           inkscape:connector-curvature="0" /><path
           d="m 17.42,183.158 c 0.376,-1.265 0.999,-2.449 2.016,-3.499 2.425,-5.17 6.371,-9.054 9.279,-13.612 4.967,-2.879 0.168,-9.93 5.17,-13 3.94,-2.813 7.375,1.285 10.092,3.789 4.132,-8.914 7.769,-18.406 14.999,-25.338 3.077,-1.279 5.802,-3.176 8.523,-5.077 l 34.124,78.872 z"
           style="fill:#c108c6;fill-opacity:1;fill-rule:nonzero;stroke:none"
           id="path4821"
           inkscape:connector-curvature="0" /><path
           d="m 67.499,126.421 c 3.274,-2.288 6.542,-4.581 10.405,-5.808 9.318,-1.437 19.344,-1.33 27.943,3.026 1.254,0.275 2.443,0.799 3.597,1.435 l -7.821,80.219 z"
           style="fill:#c601bd;fill-opacity:1;fill-rule:nonzero;stroke:none"
           id="path4823"
           inkscape:connector-curvature="0" /><path
           d="m 103.817,300.23 c -0.345,-0.53 -0.68,-1.069 -1.002,-1.619 -4.395,-5.878 -5.77,-13.113 -8.486,-19.748 -4.232,-8.63 -7.664,-17.594 -10.611,-26.725 l 42.143,-1.034 z"
           style="fill:#c889ff;fill-opacity:1;fill-rule:nonzero;stroke:none"
           id="path4825"
           inkscape:connector-curvature="0" /><path
           d="m 54.845,257.438 c -2.647,-0.872 -4.687,-2.464 -6.379,-4.435 l 18.732,-0.459 c -3.195,3.521 -7.437,5.81 -12.353,4.894"
           style="fill:#c889ff;fill-opacity:1;fill-rule:nonzero;stroke:none"
           id="path4827"
           inkscape:connector-curvature="0" /><path
           d="m 125.861,251.104 -42.143,1.034 c -2.068,-6.411 -3.899,-12.903 -5.59,-19.421 -2.043,3.024 -4.142,6.061 -5.332,9.548 -0.985,3.519 -2.924,7.331 -5.598,10.279 l -18.732,0.459 c -0.224,-0.261 -0.441,-0.531 -0.653,-0.805 l 53.81,-46.905 z"
           style="fill:#ce5bf1;fill-opacity:1;fill-rule:nonzero;stroke:none"
           id="path4829"
           inkscape:connector-curvature="0" /><path
           d="m 410.929,557.95 c -11.763,0.283 -23.849,0.447 -35.304,-2.466 l 45.977,0.659 c -3.58,0.51 -7.209,0.857 -10.673,1.807"
           style="fill:#ac5fff;fill-opacity:1;fill-rule:nonzero;stroke:none"
           id="path4831"
           inkscape:connector-curvature="0" /><path
           d="m 196.395,285.038 -21.342,58.597 c -1.202,-0.408 -2.405,-0.813 -3.609,-1.201 -3.782,-1.398 -7.633,-2.718 -11.486,-4.066 l -34.097,-87.264 z"
           style="fill:#dea5ff;fill-opacity:1;fill-rule:nonzero;stroke:none"
           id="path4833"
           inkscape:connector-curvature="0" /><path
           d="m 159.958,338.368 c -13.42,-4.692 -26.862,-9.712 -37.451,-19.454 -6.714,-5.724 -13.829,-11.218 -18.69,-18.684 l 22.044,-49.126 z"
           style="fill:#c7a2ff;fill-opacity:1;fill-rule:nonzero;stroke:none"
           id="path4835"
           inkscape:connector-curvature="0" /><path
           d="m 138,135.719 c 0.142,0.717 0.333,1.408 0.558,2.081 l -5.199,-5.572 c 1.763,0.895 3.355,2.062 4.641,3.491"
           style="fill:#df10b8;fill-opacity:1;fill-rule:nonzero;stroke:none"
           id="path4837"
           inkscape:connector-curvature="0" /><path
           d="m 161.993,162.922 c 8.295,-5.784 16.165,-12.205 24.73,-17.593 6.666,-3.751 13.653,-6.996 20.854,-9.641 l -2.214,73.726 z"
           style="fill:#df10b8;fill-opacity:1;fill-rule:nonzero;stroke:none"
           id="path4839"
           inkscape:connector-curvature="0" /><path
           d="m 101.623,205.293 7.821,-80.219 c 4.314,2.382 8.138,6.369 12.973,5.076 3.634,-0.341 7.595,0.376 10.942,2.078 l 5.199,5.572 c 1.945,5.809 6.664,10.179 8.625,16.005 2.256,4.395 -0.034,15.369 7.196,14.112 2.598,-1.576 5.124,-3.258 7.614,-4.995 l 43.37,46.492 z"
           style="fill:#dc25c9;fill-opacity:1;fill-rule:nonzero;stroke:none"
           id="path4841"
           inkscape:connector-curvature="0" /><path
           d="m 101.623,205.293 103.74,4.121 -79.502,41.69 z"
           style="fill:#df58e4;fill-opacity:1;fill-rule:nonzero;stroke:none"
           id="path4843"
           inkscape:connector-curvature="0" /><path
           d="m 125.861,251.104 79.502,-41.69 -8.968,75.624 z"
           style="fill:#e877f7;fill-opacity:1;fill-rule:nonzero;stroke:none"
           id="path4845"
           inkscape:connector-curvature="0" /><path
           d="m 232.995,340.544 -27.4,8.685 c -1.688,-0.649 -3.376,-1.299 -5.063,-1.951 -2.987,-2.453 -5.22,1.291 -8.33,1.364 -5.868,-1.055 -11.507,-3.086 -17.149,-5.007 l 21.342,-58.597 z"
           style="fill:#e6b3ff;fill-opacity:1;fill-rule:nonzero;stroke:none"
           id="path4847"
           inkscape:connector-curvature="0" /><path
           d="m 371.815,112.267 c 3.331,0.244 4.743,1.685 5.086,3.654 l -20.044,1.589 c 4.11,-3.397 10.264,-12.215 14.958,-5.243"
           style="fill:#e61485;fill-opacity:1;fill-rule:nonzero;stroke:none"
           id="path4849"
           inkscape:connector-curvature="0" /><path
           d="m 298.438,108.377 c 2.268,-0.084 4.535,-0.15 6.781,-0.281 3.099,-0.747 4.642,-4.859 7.658,-6.397 l 9.018,1.052 c 0.382,2.193 -0.276,5.022 -0.201,7.08 4.777,1.313 9.527,2.873 14.489,3.333 6.342,0.635 10.109,-7.498 16.985,-5.927 6.52,0.918 -0.095,9.039 2.061,10.402 l -23.341,1.85 z"
           style="fill:#e61485;fill-opacity:1;fill-rule:nonzero;stroke:none"
           id="path4851"
           inkscape:connector-curvature="0" /><path
           d="m 196.395,285.038 8.968,-75.624 31.025,61.323 z"
           style="fill:#f37ef8;fill-opacity:1;fill-rule:nonzero;stroke:none"
           id="path4853"
           inkscape:connector-curvature="0" /><path
           d="m 225.306,356.826 c -6.563,-2.553 -13.14,-5.07 -19.711,-7.597 l 27.4,-8.685 z"
           style="fill:#d5b6ff;fill-opacity:1;fill-rule:nonzero;stroke:none"
           id="path4855"
           inkscape:connector-curvature="0" /><path
           d="m 441.059,549.07 c -3.024,1.372 -6.006,2.843 -9.002,4.232 -3.283,1.641 -6.842,2.325 -10.455,2.841 l -45.977,-0.659 c -2.145,-0.546 -4.269,-1.199 -6.363,-1.98 -3.098,-0.647 -5.969,-1.781 -8.723,-3.169 l 50.852,-7.157 z"
           style="fill:#b14eff;fill-opacity:1;fill-rule:nonzero;stroke:none"
           id="path4857"
           inkscape:connector-curvature="0" /><path
           d="m 217.177,132.558 c 1.57,-0.447 3.147,-0.865 4.73,-1.251 9.206,-2.672 18.738,0.173 26.972,4.418 3.217,1.483 4.894,-0.86 6.354,-3.928 l -10.846,89.009 z"
           style="fill:#ef10a4;fill-opacity:1;fill-rule:nonzero;stroke:none"
           id="path4859"
           inkscape:connector-curvature="0" /><path
           d="m 205.363,209.414 2.214,-73.726 c 3.162,-1.162 6.364,-2.209 9.6,-3.13 l 27.21,88.248 z"
           style="fill:#f42bc3;fill-opacity:1;fill-rule:nonzero;stroke:none"
           id="path4861"
           inkscape:connector-curvature="0" /><path
           d="m 205.363,209.414 39.024,11.392 -7.999,49.931 z"
           style="fill:#f768de;fill-opacity:1;fill-rule:nonzero;stroke:none"
           id="path4863"
           inkscape:connector-curvature="0" /><path
           d="m 232.995,340.544 -36.6,-55.506 39.993,-14.301 z"
           style="fill:#f2a9ff;fill-opacity:1;fill-rule:nonzero;stroke:none"
           id="path4865"
           inkscape:connector-curvature="0" /><path
           d="m 255.233,131.797 c 1.407,-2.956 2.613,-6.585 4.8,-8.119 2.862,-4.727 7.442,-7.575 12.381,-9.621 l 32.957,47.959 -1.285,2.578 c -1.527,9.935 -3.722,19.814 -4.413,29.851 4.308,1.342 8.642,2.673 12.884,4.236 l -68.17,22.125 z"
           style="fill:#fb288c;fill-opacity:1;fill-rule:nonzero;stroke:none"
           id="path4867"
           inkscape:connector-curvature="0" /><path
           d="m 307.649,365.024 -37.688,10.572 c -14.625,-6.852 -29.599,-12.912 -44.655,-18.77 l 7.689,-16.282 z"
           style="fill:#e8bbff;fill-opacity:1;fill-rule:nonzero;stroke:none"
           id="path4869"
           inkscape:connector-curvature="0" /><path
           d="m 297.062,392.325 c -8.544,-5.096 -16.636,-11.004 -25.309,-15.891 -0.596,-0.284 -1.194,-0.559 -1.792,-0.838 l 37.688,-10.572 z"
           style="fill:#ddb8ff;fill-opacity:1;fill-rule:nonzero;stroke:none"
           id="path4871"
           inkscape:connector-curvature="0" /><path
           d="m 277.961,112.064 c 6.478,-3.001 13.482,-3.428 20.477,-3.687 l 33.45,11.112 -1.473,23.794 c -5.335,0.531 -10.69,0.807 -16.058,0.71 l -8.986,18.023 -32.957,-47.959 c 1.823,-0.755 3.695,-1.403 5.547,-1.993"
           style="fill:#f51d85;fill-opacity:1;fill-rule:nonzero;stroke:none"
           id="path4873"
           inkscape:connector-curvature="0" /><path
           d="m 236.388,270.737 97.196,-17.452 -25.935,111.739 z"
           style="fill:#ffa4dc;fill-opacity:1;fill-rule:nonzero;stroke:none"
           id="path4875"
           inkscape:connector-curvature="0" /><path
           d="m 307.649,365.024 -74.654,-24.48 3.393,-69.807 z"
           style="fill:#f9b6ff;fill-opacity:1;fill-rule:nonzero;stroke:none"
           id="path4877"
           inkscape:connector-curvature="0" /><path
           d="m 244.387,220.806 89.197,32.479 -97.196,17.452 z"
           style="fill:#fd78c4;fill-opacity:1;fill-rule:nonzero;stroke:none"
           id="path4879"
           inkscape:connector-curvature="0" /><path
           d="m 244.387,220.806 68.17,-22.125 c 4.347,1.6 8.597,3.443 12.624,5.79 1.167,0.661 2.313,1.352 3.442,2.067 l 4.961,46.747 z"
           style="fill:#ff5e98;fill-opacity:1;fill-rule:nonzero;stroke:none"
           id="path4881"
           inkscape:connector-curvature="0" /><path
           d="m 311.274,398.938 c -2.147,-0.465 -4.256,-0.995 -5.88,-2.05 -2.846,-1.399 -5.612,-2.941 -8.332,-4.563 l 10.587,-27.301 z"
           style="fill:#dfb6ff;fill-opacity:1;fill-rule:nonzero;stroke:none"
           id="path4883"
           inkscape:connector-curvature="0" /><path
           d="m 310.563,435.982 c 1.133,-2.893 2.421,-5.734 3.757,-8.547 l 0.843,7.881 z"
           style="fill:#dfb6ff;fill-opacity:1;fill-rule:nonzero;stroke:none"
           id="path4885"
           inkscape:connector-curvature="0" /><path
           d="m 328.489,532.042 c -4.872,-4.398 -8.62,-10.184 -11.661,-15.877 -4.412,-5.165 -2.206,-12.102 -5.074,-17.951 -1.498,-4.374 -2.703,-8.857 -3.617,-13.402 l 19.873,3.102 z"
           style="fill:#ad92ff;fill-opacity:1;fill-rule:nonzero;stroke:none"
           id="path4887"
           inkscape:connector-curvature="0" /><path
           d="m 308.553,441.783 c 0.581,-1.961 1.261,-3.892 2.01,-5.801 l 4.6,-0.666 z"
           style="fill:#c0adff;fill-opacity:1;fill-rule:nonzero;stroke:none"
           id="path4889"
           inkscape:connector-curvature="0" /><path
           d="m 328.01,487.914 -19.873,-3.102 c -2.237,-11.126 -2.723,-22.634 -1.436,-33.868 0.315,-3.138 0.969,-6.183 1.852,-9.161 l 6.61,-6.467 z"
           style="fill:#bea5ff;fill-opacity:1;fill-rule:nonzero;stroke:none"
           id="path4891"
           inkscape:connector-curvature="0" /><path
           d="m 333.584,253.285 55.991,88.713 -81.926,23.026 z"
           style="fill:#ffa0d2;fill-opacity:1;fill-rule:nonzero;stroke:none"
           id="path4893"
           inkscape:connector-curvature="0" /><path
           d="m 502.855,126.15 c 1.2,-0.983 3.19,-1.554 4.979,-1.304 l -4.096,1.429 z"
           style="fill:#df0085;fill-opacity:1;fill-rule:nonzero;stroke:none"
           id="path4895"
           inkscape:connector-curvature="0" /><path
           d="m 315.163,435.316 74.412,-93.318 23.269,89.925 z"
           style="fill:#f0a3ff;fill-opacity:1;fill-rule:nonzero;stroke:none"
           id="path4897"
           inkscape:connector-curvature="0" /><path
           d="m 389.575,341.998 -74.412,93.318 -0.843,-7.881 c 0.821,-1.726 1.657,-3.442 2.485,-5.153 4.053,-3.81 6.293,-9.621 4.525,-15.441 0.098,-6.099 -5.086,-6.828 -10.056,-7.903 l -3.625,-33.914 z"
           style="fill:#f6b1ff;fill-opacity:1;fill-rule:nonzero;stroke:none"
           id="path4899"
           inkscape:connector-curvature="0" /><path
           d="m 349.346,140.487 c -6.272,1.168 -12.587,2.163 -18.931,2.796 l 1.473,-23.794 z"
           style="fill:#fb2b85;fill-opacity:1;fill-rule:nonzero;stroke:none"
           id="path4901"
           inkscape:connector-curvature="0" /><path
           d="m 328.01,487.914 -12.847,-52.598 97.681,-3.393 z"
           style="fill:#d3a2ff;fill-opacity:1;fill-rule:nonzero;stroke:none"
           id="path4903"
           inkscape:connector-curvature="0" /><path
           d="m 389.575,341.998 -55.991,-88.713 86.813,22.069 c 1.167,0.894 2.359,1.76 3.583,2.584 2.672,3.436 4.391,2.148 5.795,-0.201 l 4.883,1.242 z"
           style="fill:#fe7d9f;fill-opacity:1;fill-rule:nonzero;stroke:none"
           id="path4905"
           inkscape:connector-curvature="0" /><path
           d="m 355.229,117.639 c 0.269,0.17 0.673,0.235 1.256,0.168 0.122,-0.094 0.247,-0.193 0.372,-0.297 l 20.044,-1.589 c 0.556,3.188 -1.692,7.763 -3.149,10.89 -2.346,6.297 -9.363,9.75 -15.387,11.894 -2.994,0.62 -6.002,1.221 -9.019,1.782 l -17.458,-20.998 z"
           style="fill:#f31f85;fill-opacity:1;fill-rule:nonzero;stroke:none"
           id="path4907"
           inkscape:connector-curvature="0" /><path
           d="m 411.391,543.178 -50.852,7.157 c -8.002,-4.031 -15.01,-10.21 -23.672,-12.846 -3.123,-1.324 -5.896,-3.206 -8.378,-5.447 l -0.479,-44.128 z"
           style="fill:#b77cff;fill-opacity:1;fill-rule:nonzero;stroke:none"
           id="path4909"
           inkscape:connector-curvature="0" /><path
           d="M 411.391,543.178 328.01,487.914 431.023,484.035 Z"
           style="fill:#c27dff;fill-opacity:1;fill-rule:nonzero;stroke:none"
           id="path4911"
           inkscape:connector-curvature="0" /><path
           d="m 431.023,484.035 -103.013,3.879 84.834,-55.991 z"
           style="fill:#d38cff;fill-opacity:1;fill-rule:nonzero;stroke:none"
           id="path4913"
           inkscape:connector-curvature="0" /><path
           d="m 328.623,206.538 c 10.225,6.466 19.049,14.946 28.541,22.418 1.373,1.271 2.809,2.446 4.293,3.551 l -27.873,20.778 z"
           style="fill:#ff4885;fill-opacity:1;fill-rule:nonzero;stroke:none"
           id="path4915"
           inkscape:connector-curvature="0" /><path
           d="m 361.457,232.507 c 6.758,5.027 14.527,8.528 21.988,12.413 14.58,7.176 24.26,20.7 36.952,30.434 l -86.813,-22.069 z"
           style="fill:#fe5785;fill-opacity:1;fill-rule:nonzero;stroke:none"
           id="path4917"
           inkscape:connector-curvature="0" /><path
           d="m 429.775,277.737 c 0.843,-1.408 1.573,-3.196 2.327,-4.578 l 2.556,5.82 z"
           style="fill:#fe5785;fill-opacity:1;fill-rule:nonzero;stroke:none"
           id="path4919"
           inkscape:connector-curvature="0" /><path
           d="m 501.801,127.724 c 0.121,-0.585 0.505,-1.122 1.054,-1.574 l 0.883,0.125 z"
           style="fill:#f01285;fill-opacity:1;fill-rule:nonzero;stroke:none"
           id="path4921"
           inkscape:connector-curvature="0" /><path
           d="m 466.202,202.714 c 3.422,-7.022 7.462,-13.748 12.934,-19.405 8.381,-8.354 14.78,-18.491 23.75,-26.271 0.181,-0.115 0.335,-0.236 0.467,-0.362 l -0.583,45.951 z"
           style="fill:#f61185;fill-opacity:1;fill-rule:nonzero;stroke:none"
           id="path4923"
           inkscape:connector-curvature="0" /><path
           d="m 502.438,148.753 c -0.163,-1.866 0.384,-3.691 1.085,-5.488 l -0.125,9.809 c -0.592,-1.428 -1.377,-2.954 -0.96,-4.321"
           style="fill:#f61185;fill-opacity:1;fill-rule:nonzero;stroke:none"
           id="path4925"
           inkscape:connector-curvature="0" /><path
           d="m 503.682,130.773 c -1.584,-1.03 -2.078,-2.102 -1.881,-3.049 l 1.937,-1.449 z"
           style="fill:#f61185;fill-opacity:1;fill-rule:nonzero;stroke:none"
           id="path4927"
           inkscape:connector-curvature="0" /><path
           d="m 389.575,341.998 76.673,-0.42 c -0.361,1.848 -0.138,3.782 1.1,5.852 0.555,2.161 1.875,3.396 3.519,4.038 l -58.023,80.455 z"
           style="fill:#fb7cd4;fill-opacity:1;fill-rule:nonzero;stroke:none"
           id="path4929"
           inkscape:connector-curvature="0" /><path
           d="m 434.658,278.979 36.809,53.053 c -1.955,3.094 -4.56,6.177 -5.219,9.546 l -76.673,0.42 z"
           style="fill:#ff6e9a;fill-opacity:1;fill-rule:nonzero;stroke:none"
           id="path4931"
           inkscape:connector-curvature="0" /><path
           d="m 434.658,278.979 -2.556,-5.82 c 0.104,-0.191 0.209,-0.375 0.314,-0.549 9.531,-16.34 9.363,-36.453 19.254,-52.59 2.874,-5.166 8.982,-7.253 12.102,-12.075 0.781,-1.754 1.587,-3.501 2.43,-5.231 l 36.568,-0.087 z"
           style="fill:#fd3a85;fill-opacity:1;fill-rule:nonzero;stroke:none"
           id="path4933"
           inkscape:connector-curvature="0" /><path
           d="m 470.867,351.468 c 2.114,0.824 4.768,0.668 7.029,0.239 6.612,0.814 3.35,9.093 0.336,12.315 -3.851,8.431 5.311,9.436 11.205,10.806 0.745,0.043 1.434,0.148 2.075,0.305 l 12.799,31.95 c -2.209,3.302 -3.661,6.838 -1.01,10.681 -2.38,5.804 8.836,4.384 5.355,8.493 -0.789,0.246 -1.382,0.532 -1.816,0.851 l -93.996,4.815 z"
           style="fill:#f55cde;fill-opacity:1;fill-rule:nonzero;stroke:none"
           id="path4935"
           inkscape:connector-curvature="0" /><path
           d="m 431.023,484.035 37.368,54.601 c -4.249,2.81 -9.53,4.144 -13.847,5.685 -4.687,1.001 -9.128,2.771 -13.485,4.749 l -29.668,-5.892 z"
           style="fill:#bc49f5;fill-opacity:1;fill-rule:nonzero;stroke:none"
           id="path4937"
           inkscape:connector-curvature="0" /><path
           d="m 412.844,431.923 93.996,-4.815 c -1.394,1.025 -1.152,2.388 -0.494,3.865 l -75.323,53.062 z"
           style="fill:#e067ed;fill-opacity:1;fill-rule:nonzero;stroke:none"
           id="path4939"
           inkscape:connector-curvature="0" /><path
           d="m 490.75,284.801 c -2.141,4.331 -4.264,8.667 -6.455,12.951 -5.479,10.25 -5.951,22.341 -11.777,32.467 -0.313,0.606 -0.669,1.21 -1.051,1.813 l -36.809,-53.053 z"
           style="fill:#ff4b85;fill-opacity:1;fill-rule:nonzero;stroke:none"
           id="path4941"
           inkscape:connector-curvature="0" /><path
           d="m 502.77,202.627 1.329,57.347 c -4.943,7.977 -9.18,16.391 -13.349,24.827 l -56.092,-5.822 z"
           style="fill:#fd3785;fill-opacity:1;fill-rule:nonzero;stroke:none"
           id="path4943"
           inkscape:connector-curvature="0" /><path
           d="m 503.916,502.942 c -3.809,6.12 -7.474,12.342 -12.582,17.478 -6.175,5.91 -13.59,10.519 -20.186,16.009 -0.847,0.828 -1.775,1.557 -2.757,2.207 l -37.368,-54.601 z"
           style="fill:#c239e5;fill-opacity:1;fill-rule:nonzero;stroke:none"
           id="path4945"
           inkscape:connector-curvature="0" /><path
           d="m 506.346,430.973 c 0.98,2.207 2.886,4.668 1.636,6.629 -0.038,5.057 1.64,9.914 3.038,14.795 l -2.008,42.699 c -0.574,0.926 -1.18,1.84 -1.815,2.735 -1.129,1.679 -2.211,3.391 -3.281,5.111 l -72.893,-18.907 z"
           style="fill:#d544e0;fill-opacity:1;fill-rule:nonzero;stroke:none"
           id="path4947"
           inkscape:connector-curvature="0" /><path
           d="m 524.857,235.761 c -4.138,5.139 -9.681,9.128 -13.933,14.188 -2.44,3.239 -4.697,6.591 -6.825,10.025 l -1.329,-57.347 z"
           style="fill:#fa2585;fill-opacity:1;fill-rule:nonzero;stroke:none"
           id="path4949"
           inkscape:connector-curvature="0" /><path
           d="m 543.49,179.843 -40.72,22.784 0.583,-45.951 c 1.001,-0.962 0.611,-2.238 0.045,-3.602 l 0.125,-9.809 c 1.648,-4.23 4.151,-8.303 0.305,-12.396 -0.051,-0.032 -0.098,-0.063 -0.146,-0.096 l 0.056,-4.498 z"
           style="fill:#f00085;fill-opacity:1;fill-rule:nonzero;stroke:none"
           id="path4951"
           inkscape:connector-curvature="0" /><path
           d="m 502.223,388.445 c 5.602,2.089 11.256,7.079 6.023,13.153 -1.139,1.759 -2.662,3.584 -3.935,5.485 l -12.799,-31.95 c 6.347,1.555 7.933,8.347 10.711,13.312"
           style="fill:#fc37a1;fill-opacity:1;fill-rule:nonzero;stroke:none"
           id="path4953"
           inkscape:connector-curvature="0" /><path
           d="m 512.215,457.124 c 2.414,7.522 3.098,15.414 2.396,23.273 -0.74,5.275 -2.787,10.169 -5.599,14.699 l 2.008,-42.699 c 0.449,1.571 0.871,3.144 1.195,4.727"
           style="fill:#db2acc;fill-opacity:1;fill-rule:nonzero;stroke:none"
           id="path4955"
           inkscape:connector-curvature="0" /><path
           d="m 503.738,126.275 4.096,-1.429 c 0.633,0.089 1.239,0.278 1.776,0.59 6.242,0.375 9.611,5.877 13.158,10.25 4.558,-0.595 9.111,-1.191 13.673,-1.674 8.461,-0.165 16.319,-3.731 24.657,-4.457 l -17.608,50.288 z"
           style="fill:#e40085;fill-opacity:1;fill-rule:nonzero;stroke:none"
           id="path4957"
           inkscape:connector-curvature="0" /><path
           d="m 543.49,179.843 0.758,7.694 c -0.128,0.327 -0.256,0.654 -0.385,0.981 -4.435,13.932 -8.425,28.11 -15.207,41.145 -1,2.251 -2.308,4.248 -3.799,6.098 L 502.77,202.627 Z"
           style="fill:#f61085;fill-opacity:1;fill-rule:nonzero;stroke:none"
           id="path4959"
           inkscape:connector-curvature="0" /><path
           d="m 561.098,129.555 c 0.724,-0.063 1.45,-0.108 2.181,-0.123 7.056,1.1 18.227,-0.96 20.899,1.235 2.474,2.043 -2.122,1.555 0.858,4.322 1.375,1.275 3.29,-1.488 5.609,-0.213 5.095,2.795 -7.03,13.191 -13.136,15.38 -6.265,2.527 -14.286,1.841 -18.833,7.544 -4.701,5.678 -7.736,12.374 -10.406,19.226 l -4.78,2.917 z"
           style="fill:#db0085;fill-opacity:1;fill-rule:nonzero;stroke:none"
           id="path4961"
           inkscape:connector-curvature="0" /><path
           d="m 543.49,179.843 4.78,-2.917 c -0.502,1.287 -0.992,2.579 -1.476,3.872 z"
           style="fill:#dd0085;fill-opacity:1;fill-rule:nonzero;stroke:none"
           id="path4963"
           inkscape:connector-curvature="0" /><path
           d="m 546.794,180.798 c -0.847,2.257 -1.681,4.514 -2.546,6.739 l -0.758,-7.694 z"
           style="fill:#ed0485;fill-opacity:1;fill-rule:nonzero;stroke:none"
           id="path4965"
           inkscape:connector-curvature="0" /></g></g></g></svg>